<svg width="362" height="380" viewBox="0 0 362 380" fill="none" xmlns="http://www.w3.org/2000/svg">
<path d="M334.022 32.6623C317.383 12.0912 295.02 0.293976 272.671 0.293976C267.983 0.293976 264.58 3.80255 264.58 8.63956C264.58 13.4749 267.983 16.9851 272.671 16.9851C293.088 16.9851 311.718 26.972 325.132 45.1054C338.666 63.4061 345.819 88.5683 345.819 117.868C345.819 144.099 340.068 167.975 327.17 195.285C305.385 240.574 267.728 283.218 221.097 315.453C177.368 345.678 131.121 363.015 94.2107 363.015C42.5792 363.015 16.4006 331.152 16.4006 268.316C16.4006 238.981 23.2516 207.836 36.7602 175.743C53.9366 132.915 78.9641 97.6717 109.144 73.8129C139.684 49.6697 175.737 36.9087 213.406 36.9087C218.093 36.9087 221.496 33.3985 221.496 28.5615C221.496 23.7262 218.093 20.2159 213.406 20.2159C132.534 20.2159 58.8685 77.5641 21.1564 169.877C7.67033 203.671 0.219971 238.668 0.219971 268.316C0.219971 322.165 24.9121 379.706 94.2107 379.706C132.235 379.706 182.438 360.94 228.505 329.502C278.805 295.175 319.116 250.104 342.026 202.572C355.093 174.36 362 145.07 362 117.868C362 85.2237 352.063 54.9651 334.022 32.6623ZM137.188 110.011C137.188 102.644 143.285 95.6356 151.992 95.6356C152.863 95.6356 153.734 95.8163 154.431 96.176H154.778C155.649 96.176 156.347 96.355 157.044 96.713C163.662 99.5891 165.926 104.801 165.926 109.113C165.926 116.3 159.83 123.486 151.47 123.486C143.458 123.486 137.188 117.378 137.188 110.011ZM235.192 110.04C235.192 102.673 241.288 95.664 249.995 95.664C250.866 95.664 251.737 95.8447 252.435 96.2044H252.783C253.654 96.2044 254.35 96.3834 255.047 96.7415C261.666 99.6176 263.93 104.829 263.93 109.141C263.93 116.329 257.834 123.515 249.473 123.515C241.462 123.515 235.192 117.406 235.192 110.04ZM97.3164 274.177C97.3164 263.818 99.548 247.477 101.78 230.215C104.902 206.969 108.025 181.422 107.577 163.929V163.7C107.577 159.557 110.703 156.335 114.717 156.335C118.512 156.335 121.634 159.557 121.856 163.471C122.526 182.113 118.958 208.811 115.832 232.288C114.048 246.788 112.263 259.905 111.818 269.112C111.595 270.494 112.487 270.723 113.379 269.803C120.072 260.827 131.45 244.256 143.943 226.304C150.638 216.407 183.654 170.605 191.017 171.065C201.95 171.525 202.396 182.573 202.396 209.962C202.396 230.446 203.288 254.842 203.51 263.358C203.51 264.739 204.404 264.97 205.072 264.049C209.979 256.915 217.788 244.716 227.381 229.295C241.437 206.969 258.393 180.042 275.347 159.788C276.685 158.175 278.471 157.255 280.703 157.255C284.718 157.255 287.842 160.478 287.842 164.62C287.842 166.461 287.172 168.072 286.056 169.454C269.994 189.018 253.484 215.025 239.43 237.351C222.697 263.818 210.427 285.224 199.94 285.454C187.894 285.683 187.448 266.812 187.672 244.946C187.894 220.319 187.672 216.176 186.556 193.39C186.556 192.009 185.662 191.78 184.992 192.7C178.079 202.137 164.022 223.312 154.876 234.82C139.481 254.382 117.842 290.747 107.133 291.438C99.3242 291.899 97.3164 283.842 97.3164 274.177Z" fill="white" style="mix-blend-mode:difference"/>
</svg>
