<svg width="3162" height="3317" viewBox="0 0 3162 3317" fill="none" xmlns="http://www.w3.org/2000/svg">
<path d="M2917.47 283.798C2772.04 104.004 2576.59 0.894928 2381.26 0.894928C2340.28 0.894928 2310.54 31.5602 2310.54 73.8363C2310.54 116.098 2340.28 146.777 2381.26 146.777C2559.7 146.777 2722.53 234.064 2839.77 392.552C2958.05 552.502 3020.58 772.422 3020.58 1028.51C3020.58 1257.77 2970.32 1466.45 2857.58 1705.14C2667.18 2100.97 2338.05 2473.69 1930.49 2755.42C1548.3 3019.59 1144.09 3171.12 821.49 3171.12C370.224 3171.12 141.421 2892.63 141.421 2343.44C141.421 2087.05 201.299 1814.83 319.366 1534.34C469.49 1160.01 688.233 851.988 952.01 643.459C1218.93 432.444 1534.04 320.912 1863.27 320.912C1904.24 320.912 1933.98 290.232 1933.98 247.956C1933.98 205.695 1904.24 175.015 1863.27 175.015C1156.44 175.015 512.595 676.245 182.987 1483.07C65.117 1778.44 0 2084.31 0 2343.44C0 2814.09 215.812 3317 821.49 3317C1153.83 3317 1592.61 3152.99 1995.24 2878.21C2434.87 2578.19 2787.19 2184.26 2987.42 1768.83C3101.63 1522.25 3162 1266.25 3162 1028.51C3162 743.19 3075.15 478.727 2917.47 283.798ZM1197.12 959.835C1197.12 895.448 1250.4 834.191 1326.51 834.191C1334.12 834.191 1341.73 835.771 1347.82 838.915H1350.86C1358.47 838.915 1364.56 840.479 1370.66 843.609C1428.51 868.746 1448.29 914.298 1448.29 951.982C1448.29 1014.8 1395.01 1077.61 1321.94 1077.61C1251.92 1077.61 1197.12 1024.22 1197.12 959.835ZM2053.68 960.084C2053.68 895.697 2106.96 834.44 2183.07 834.44C2190.68 834.44 2198.29 836.019 2204.39 839.163H2207.43C2215.05 839.163 2221.13 840.728 2227.22 843.857C2285.07 868.995 2304.86 914.546 2304.86 952.231C2304.86 1015.05 2251.57 1077.86 2178.5 1077.86C2108.48 1077.86 2053.68 1024.47 2053.68 960.084ZM848.634 2394.66C848.634 2304.13 868.139 2161.3 887.643 2010.43C914.929 1807.26 942.23 1583.97 938.318 1431.09V1429.08C938.318 1392.88 965.632 1364.71 1000.71 1364.71C1033.88 1364.71 1061.17 1392.88 1063.11 1427.08C1068.97 1590.01 1037.78 1823.36 1010.47 2028.55C994.875 2155.28 979.268 2269.93 975.384 2350.4C973.428 2362.48 981.224 2364.48 989.02 2356.44C1047.52 2277.98 1146.97 2133.15 1256.16 1976.25C1314.67 1889.75 1603.24 1489.43 1667.59 1493.46C1763.14 1497.48 1767.04 1594.03 1767.04 1833.42C1767.04 2012.45 1774.84 2225.68 1776.78 2300.11C1776.78 2312.17 1784.59 2314.19 1790.43 2306.15C1833.32 2243.79 1901.57 2137.17 1985.42 2002.39C2108.27 1807.26 2256.46 1571.91 2404.65 1394.89C2416.34 1380.8 2431.95 1372.75 2451.45 1372.75C2486.55 1372.75 2513.85 1400.92 2513.85 1437.13C2513.85 1453.21 2507.99 1467.29 2498.24 1479.37C2357.86 1650.36 2213.56 1877.67 2090.72 2072.8C1944.48 2304.13 1837.23 2491.22 1745.58 2493.22C1640.29 2495.23 1636.39 2330.29 1638.35 2139.18C1640.29 1923.94 1638.35 1887.73 1628.6 1688.57C1628.6 1676.51 1620.79 1674.51 1614.93 1682.55C1554.51 1765.03 1431.65 1950.1 1351.71 2050.68C1217.16 2221.65 1028.03 2539.49 934.434 2545.53C866.183 2549.55 848.634 2479.14 848.634 2394.66Z" fill="white"/>
</svg>
